<?xml version="1.0" encoding="utf-8"?>
<!-- Generator: Adobe Illustrator 23.0.0, SVG Export Plug-In . SVG Version: 6.00 Build 0)  -->
<svg version="1.1" id="Capa_1" xmlns="http://www.w3.org/2000/svg" xmlns:xlink="http://www.w3.org/1999/xlink" x="0px" y="0px"
	 viewBox="0 0 112.2 112.2" style="enable-background:new 0 0 112.2 112.2;" xml:space="preserve">
<style type="text/css">
	.st0{fill:#FFFFFF;}
</style>
<g>
	<g>
		<path class="st0" d="M112.7,68v41.7H88.5V70.8c0-9.8-3.5-16.4-12.2-16.4c-6.7,0-10.6,4.5-12.4,8.8c-0.6,1.6-0.8,3.7-0.8,5.9v40.6
			H38.9c0,0,0.3-65.9,0-72.7h24.2v10.3c0,0.1-0.1,0.2-0.2,0.2h0.2v-0.2c3.2-4.9,8.9-12,21.8-12C100.8,35.3,112.7,45.7,112.7,68
			L112.7,68z M13.7,2C5.4,2,0,7.4,0,14.6c0,7,5.3,12.6,13.4,12.6h0.2c8.4,0,13.7-5.6,13.7-12.6C27,7.4,21.9,2,13.7,2L13.7,2z
			 M1.4,109.7h24.2V37H1.4V109.7z"/>
	</g>
</g>
</svg>
